<?xml version="1.0" encoding="UTF-8" standalone="no"?>
<svg
   xmlns:dc="http://purl.org/dc/elements/1.1/"
   xmlns:cc="http://creativecommons.org/ns#"
   xmlns:rdf="http://www.w3.org/1999/02/22-rdf-syntax-ns#"
   xmlns:svg="http://www.w3.org/2000/svg"
   xmlns="http://www.w3.org/2000/svg"
   xmlns:sodipodi="http://sodipodi.sourceforge.net/DTD/sodipodi-0.dtd"
   xmlns:inkscape="http://www.inkscape.org/namespaces/inkscape"
   version="1.1"
   id="svg2"
   xml:space="preserve"
   width="1333.3333"
   height="1333.3333"
   viewBox="0 0 1333.3333 1333.3333"
   sodipodi:docname="pinnoto-full-white.svg"
   inkscape:version="1.0.2 (e86c870879, 2021-01-15)"><metadata
     id="metadata8"><rdf:RDF><cc:Work
         rdf:about=""><dc:format>image/svg+xml</dc:format><dc:type
           rdf:resource="http://purl.org/dc/dcmitype/StillImage" /><dc:title></dc:title></cc:Work></rdf:RDF></metadata><defs
     id="defs6" /><sodipodi:namedview
     pagecolor="#ffffff"
     bordercolor="#666666"
     borderopacity="1"
     objecttolerance="10"
     gridtolerance="10"
     guidetolerance="10"
     inkscape:pageopacity="0"
     inkscape:pageshadow="2"
     inkscape:window-width="1366"
     inkscape:window-height="715"
     id="namedview4"
     showgrid="false"
     inkscape:pagecheckerboard="true"
     inkscape:zoom="0.39448301"
     inkscape:cx="622.30477"
     inkscape:cy="666.66663"
     inkscape:window-x="0"
     inkscape:window-y="25"
     inkscape:window-maximized="1"
     inkscape:current-layer="g10" /><g
     id="g10"
     inkscape:groupmode="layer"
     inkscape:label="ink_ext_XXXXXX"
     transform="matrix(1.3333333,0,0,-1.3333333,0,1333.3333)"><g
       id="g12"
       transform="matrix(0.1,0,0,0.1,0.00163906,0)"><path
         d="M 9995.98,5002.02 H 8746.48 L 7496.98,4.01563 h 2499 V 5002.02"
         style="fill:#ffffff;fill-opacity:1;fill-rule:nonzero;stroke:none"
         id="path14" /><path
         d="M 9263.78,9268.81 C 8775.97,9756.11 8187.21,10000 7496.98,10000 6806.76,10000 6217.5,9756.11 5729.19,9268.81 5256.88,8796 5012.98,8228.23 4998.48,7565.49 l -0.5,2434.51 h -2499 l 1249.5,-4997.98 h 1249.5 l 0.5,2434.52 c 0.5,-39.98 2.5,-79.97 5,-119.45 39.98,-611.25 281.89,-1139.04 725.71,-1582.87 488.31,-488.3 1077.57,-732.2 1767.79,-732.2 690.23,0 1278.99,243.9 1766.8,732.2 488.3,487.81 732.2,1076.57 732.2,1766.8 0,690.22 -243.9,1279.48 -732.2,1767.79"
         style="fill:#ffffff;fill-opacity:1;fill-rule:nonzero;stroke:none"
         id="path16" /><path
         d="M 2498.98,10000 H -0.015625 V 5002.02 H 1249.48 L 2498.98,10000"
         style="fill:#ffffff;fill-opacity:1;fill-rule:nonzero;stroke:none"
         id="path18" /><path
         d="M 732.191,4269.81 C 243.887,3782.5 -0.515625,3193.24 -0.015625,2503.02 -0.515625,1812.79 243.887,1223.53 732.191,735.223 1219.5,247.918 1808.76,4.01563 2498.98,4.01563 c 690.23,0 1279.49,243.90237 1767.8,731.20737 437.82,438.827 679.22,959.117 723.71,1560.377 3.49,47.48 5.99,94.96 6.99,142.94 l 0.5,-2434.52437 h 2499 L 6247.48,5002.02 h -1249.5 l -0.5,-2434.53 c -14.99,662.74 -258.39,1230.01 -730.7,1702.32 -488.31,488.3 -1077.57,732.71 -1767.8,732.21 -690.22,0.5 -1279.48,-243.91 -1766.789,-732.21"
         style="fill:#ffffff;fill-opacity:1;fill-rule:nonzero;stroke:none"
         id="path20" /></g></g></svg>
